<svg width="73" height="14" viewBox="0 0 73 14" fill="none" xmlns="http://www.w3.org/2000/svg">
<g id="CeloBank">
<path d="M6.36719 3.01562C5.29427 3.01562 4.45052 3.39583 3.83594 4.15625C3.22135 4.91667 2.91406 5.96615 2.91406 7.30469C2.91406 8.70573 3.20833 9.76562 3.79688 10.4844C4.39062 11.2031 5.2474 11.5625 6.36719 11.5625C6.85156 11.5625 7.32031 11.5156 7.77344 11.4219C8.22656 11.3229 8.69792 11.1979 9.1875 11.0469V12.6484C8.29167 12.987 7.27604 13.1562 6.14062 13.1562C4.46875 13.1562 3.1849 12.651 2.28906 11.6406C1.39323 10.625 0.945312 9.17448 0.945312 7.28906C0.945312 6.10156 1.16146 5.0625 1.59375 4.17188C2.03125 3.28125 2.66146 2.59896 3.48438 2.125C4.30729 1.65104 5.27344 1.41406 6.38281 1.41406C7.54948 1.41406 8.6276 1.65885 9.61719 2.14844L8.94531 3.70312C8.5599 3.52083 8.15104 3.36198 7.71875 3.22656C7.29167 3.08594 6.84115 3.01562 6.36719 3.01562Z" fill="black"/>
<path d="M15.2266 13.1562C13.8828 13.1562 12.8307 12.7656 12.0703 11.9844C11.3151 11.1979 10.9375 10.1172 10.9375 8.74219C10.9375 7.33073 11.2891 6.22135 11.9922 5.41406C12.6953 4.60677 13.6615 4.20312 14.8906 4.20312C16.0312 4.20312 16.9323 4.54948 17.5938 5.24219C18.2552 5.9349 18.5859 6.88802 18.5859 8.10156V9.09375H12.8281C12.8542 9.93229 13.0807 10.5781 13.5078 11.0312C13.9349 11.4792 14.5365 11.7031 15.3125 11.7031C15.8229 11.7031 16.2969 11.6562 16.7344 11.5625C17.1771 11.4635 17.651 11.3021 18.1562 11.0781V12.5703C17.7083 12.7839 17.2552 12.9349 16.7969 13.0234C16.3385 13.112 15.8151 13.1562 15.2266 13.1562ZM14.8906 5.59375C14.3073 5.59375 13.8385 5.77865 13.4844 6.14844C13.1354 6.51823 12.9271 7.05729 12.8594 7.76562H16.7812C16.7708 7.05208 16.599 6.51302 16.2656 6.14844C15.9323 5.77865 15.474 5.59375 14.8906 5.59375Z" fill="black"/>
<path d="M22.5078 13H20.6719V0.84375H22.5078V13Z" fill="black"/>
<path d="M32.8047 8.66406C32.8047 10.0755 32.4427 11.1771 31.7188 11.9688C30.9948 12.7604 29.987 13.1562 28.6953 13.1562C27.888 13.1562 27.1745 12.974 26.5547 12.6094C25.9349 12.2448 25.4583 11.7214 25.125 11.0391C24.7917 10.3568 24.625 9.5651 24.625 8.66406C24.625 7.26302 24.9844 6.16927 25.7031 5.38281C26.4219 4.59635 27.4349 4.20312 28.7422 4.20312C29.9922 4.20312 30.9818 4.60677 31.7109 5.41406C32.4401 6.21615 32.8047 7.29948 32.8047 8.66406ZM26.5156 8.66406C26.5156 10.6589 27.2526 11.6562 28.7266 11.6562C30.1849 11.6562 30.9141 10.6589 30.9141 8.66406C30.9141 6.6901 30.1797 5.70312 28.7109 5.70312C27.9401 5.70312 27.3802 5.95833 27.0312 6.46875C26.6875 6.97917 26.5156 7.71094 26.5156 8.66406Z" fill="black"/>
<path d="M35.1172 1.57812H38.5078C40.0807 1.57812 41.2161 1.80729 41.9141 2.26562C42.6172 2.72396 42.9688 3.44792 42.9688 4.4375C42.9688 5.10417 42.7969 5.65885 42.4531 6.10156C42.1094 6.54427 41.6146 6.82292 40.9688 6.9375V7.01562C41.7708 7.16667 42.3594 7.46615 42.7344 7.91406C43.1146 8.35677 43.3047 8.95833 43.3047 9.71875C43.3047 10.7448 42.9453 11.5495 42.2266 12.1328C41.513 12.7109 40.5182 13 39.2422 13H35.1172V1.57812ZM36.9844 6.29688H38.7812C39.5625 6.29688 40.1328 6.17448 40.4922 5.92969C40.8516 5.67969 41.0312 5.25781 41.0312 4.66406C41.0312 4.1276 40.8359 3.73958 40.4453 3.5C40.0599 3.26042 39.4453 3.14062 38.6016 3.14062H36.9844V6.29688ZM36.9844 7.8125V11.4297H38.9688C39.75 11.4297 40.3385 11.2812 40.7344 10.9844C41.1354 10.6823 41.3359 10.2083 41.3359 9.5625C41.3359 8.96875 41.1328 8.52865 40.7266 8.24219C40.3203 7.95573 39.7031 7.8125 38.875 7.8125H36.9844Z" fill="black"/>
<path d="M50.8906 13L50.5234 11.7969H50.4609C50.0443 12.3229 49.625 12.6823 49.2031 12.875C48.7812 13.0625 48.2396 13.1562 47.5781 13.1562C46.7292 13.1562 46.0651 12.9271 45.5859 12.4688C45.112 12.0104 44.875 11.362 44.875 10.5234C44.875 9.63281 45.2057 8.96094 45.8672 8.50781C46.5286 8.05469 47.5365 7.80729 48.8906 7.76562L50.3828 7.71875V7.25781C50.3828 6.70573 50.2526 6.29427 49.9922 6.02344C49.737 5.7474 49.3385 5.60938 48.7969 5.60938C48.3542 5.60938 47.9297 5.67448 47.5234 5.80469C47.1172 5.9349 46.7266 6.08854 46.3516 6.26562L45.7578 4.95312C46.2266 4.70833 46.7396 4.52344 47.2969 4.39844C47.8542 4.26823 48.3802 4.20312 48.875 4.20312C49.974 4.20312 50.8021 4.44271 51.3594 4.92188C51.9219 5.40104 52.2031 6.15365 52.2031 7.17969V13H50.8906ZM48.1562 11.75C48.8229 11.75 49.3568 11.5651 49.7578 11.1953C50.1641 10.8203 50.3672 10.2969 50.3672 9.625V8.875L49.2578 8.92188C48.3932 8.95312 47.763 9.09896 47.3672 9.35938C46.9766 9.61458 46.7812 10.0078 46.7812 10.5391C46.7812 10.9245 46.8958 11.224 47.125 11.4375C47.3542 11.6458 47.6979 11.75 48.1562 11.75Z" fill="black"/>
<path d="M62.3672 13H60.5234V7.6875C60.5234 7.02083 60.388 6.52344 60.1172 6.19531C59.8516 5.86719 59.4271 5.70312 58.8438 5.70312C58.0677 5.70312 57.5 5.93229 57.1406 6.39062C56.7812 6.84896 56.6016 7.61719 56.6016 8.69531V13H54.7656V4.35938H56.2031L56.4609 5.49219H56.5547C56.8151 5.08073 57.1849 4.76302 57.6641 4.53906C58.1432 4.3151 58.6745 4.20312 59.2578 4.20312C61.3307 4.20312 62.3672 5.25781 62.3672 7.36719V13Z" fill="black"/>
<path d="M66.6953 8.4375L67.7344 7.14062L70.3438 4.35938H72.4609L68.9844 8.07031L72.6797 13H70.5234L67.75 9.21094L66.7422 10.0391V13H64.9219V0.84375H66.7422V6.77344L66.6484 8.4375H66.6953Z" fill="black"/>
</g>
</svg>
